<svg width="25" height="31" viewBox="0 0 25 31" fill="none" xmlns="http://www.w3.org/2000/svg">
<path d="M19.7917 9.66667V8.20833C19.7917 4.18771 16.5206 0.916668 12.5 0.916668C8.47938 0.916668 5.20834 4.18771 5.20834 8.20833V12.5833H3.75001C2.14147 12.5833 0.833344 13.8915 0.833344 15.5V27.1667C0.833344 28.7752 2.14147 30.0833 3.75001 30.0833H21.25C22.8586 30.0833 24.1667 28.7752 24.1667 27.1667V15.5C24.1667 13.8915 22.8586 12.5833 21.25 12.5833H8.12501V8.20833C8.12501 5.79625 10.0879 3.83333 12.5 3.83333C14.9121 3.83333 16.875 5.79625 16.875 8.20833V9.66667H19.7917Z" fill="white"/>
</svg>
